<svg id="svg" version="1.1" xmlns="http://www.w3.org/2000/svg" xmlns:xlink="http://www.w3.org/1999/xlink" width="400" height="371.875" viewBox="0, 0, 400,371.875"><g id="svgg"><path id="path0" d="M199.189 39.766 L 198.594 40.469 199.297 39.873 C 199.988 39.288,200.012 39.288,200.703 39.873 L 201.406 40.469 200.811 39.766 C 200.484 39.379,200.119 39.063,200.000 39.063 C 199.881 39.063,199.516 39.379,199.189 39.766 M195.454 43.203 L 194.219 44.531 195.547 43.296 C 196.782 42.147,197.019 41.875,196.782 41.875 C 196.731 41.875,196.133 42.473,195.454 43.203 M203.125 41.973 C 203.125 42.027,203.582 42.484,204.141 42.988 L 205.156 43.906 204.238 42.891 C 203.383 41.944,203.125 41.731,203.125 41.973 M188.574 50.078 L 187.656 51.094 188.672 50.176 C 189.230 49.671,189.688 49.214,189.688 49.160 C 189.688 48.919,189.430 49.131,188.574 50.078 M104.824 118.203 L 103.906 119.219 104.922 118.301 C 105.480 117.796,105.938 117.339,105.938 117.285 C 105.938 117.044,105.680 117.256,104.824 118.203 M302.500 125.723 C 302.500 125.777,302.957 126.234,303.516 126.738 L 304.531 127.656 303.613 126.641 C 302.758 125.694,302.500 125.481,302.500 125.723 M96.074 126.953 L 95.156 127.969 96.172 127.051 C 96.730 126.546,97.188 126.089,97.188 126.035 C 97.188 125.794,96.930 126.006,96.074 126.953 M116.704 133.203 L 115.469 134.531 116.797 133.296 C 118.032 132.147,118.269 131.875,118.032 131.875 C 117.981 131.875,117.383 132.473,116.704 133.203 M282.813 132.910 C 282.813 132.964,283.270 133.421,283.828 133.926 L 284.844 134.844 283.926 133.828 C 283.070 132.881,282.813 132.669,282.813 132.910 M111.250 138.594 C 110.491 139.367,109.940 140.000,110.026 140.000 C 110.112 140.000,110.803 139.367,111.563 138.594 C 112.322 137.820,112.872 137.188,112.786 137.188 C 112.700 137.188,112.009 137.820,111.250 138.594 M288.281 138.438 C 288.953 139.125,289.572 139.688,289.658 139.688 C 289.744 139.688,289.265 139.125,288.594 138.438 C 287.922 137.750,287.303 137.188,287.217 137.188 C 287.131 137.188,287.610 137.750,288.281 138.438 M254.448 148.750 C 254.448 149.352,254.512 149.598,254.590 149.297 C 254.669 148.996,254.669 148.504,254.590 148.203 C 254.512 147.902,254.448 148.148,254.448 148.750 M126.010 153.438 C 126.010 154.039,126.074 154.285,126.153 153.984 C 126.232 153.684,126.232 153.191,126.153 152.891 C 126.074 152.590,126.010 152.836,126.010 153.438 M273.823 153.438 C 273.823 154.039,273.887 154.285,273.965 153.984 C 274.044 153.684,274.044 153.191,273.965 152.891 C 273.887 152.590,273.823 152.836,273.823 153.438 M254.760 154.063 C 254.760 154.664,254.824 154.910,254.903 154.609 C 254.982 154.309,254.982 153.816,254.903 153.516 C 254.824 153.215,254.760 153.461,254.760 154.063 M145.073 154.375 C 145.073 154.977,145.137 155.223,145.215 154.922 C 145.294 154.621,145.294 154.129,145.215 153.828 C 145.137 153.527,145.073 153.773,145.073 154.375 M199.141 164.286 C 199.613 164.358,200.387 164.358,200.859 164.286 C 201.332 164.215,200.945 164.156,200.000 164.156 C 199.055 164.156,198.668 164.215,199.141 164.286 M185.078 164.903 C 185.379 164.982,185.871 164.982,186.172 164.903 C 186.473 164.824,186.227 164.760,185.625 164.760 C 185.023 164.760,184.777 164.824,185.078 164.903 M126.016 167.344 C 126.020 168.031,126.084 168.276,126.159 167.887 C 126.233 167.498,126.230 166.936,126.152 166.637 C 126.074 166.338,126.013 166.656,126.016 167.344 M323.438 213.281 C 324.021 213.883,324.568 214.375,324.654 214.375 C 324.740 214.375,324.333 213.883,323.750 213.281 C 323.167 212.680,322.620 212.188,322.534 212.188 C 322.448 212.188,322.854 212.680,323.438 213.281 M59.454 213.594 C 59.457 214.281,59.521 214.526,59.596 214.137 C 59.671 213.748,59.668 213.186,59.590 212.887 C 59.511 212.588,59.450 212.906,59.454 213.594 M78.516 214.844 C 78.520 215.531,78.584 215.776,78.659 215.387 C 78.733 214.998,78.730 214.436,78.652 214.137 C 78.574 213.838,78.513 214.156,78.516 214.844 M87.594 221.875 C 87.594 222.820,87.652 223.207,87.724 222.734 C 87.795 222.262,87.795 221.488,87.724 221.016 C 87.652 220.543,87.594 220.930,87.594 221.875 M330.938 220.723 C 330.938 220.777,331.395 221.234,331.953 221.738 L 332.969 222.656 332.051 221.641 C 331.195 220.694,330.938 220.481,330.938 220.723 M310.625 227.285 C 310.625 227.339,311.082 227.796,311.641 228.301 L 312.656 229.219 311.738 228.203 C 310.883 227.256,310.625 227.044,310.625 227.285 M316.094 232.813 C 317.288 234.016,318.335 235.000,318.421 235.000 C 318.507 235.000,317.600 234.016,316.406 232.813 C 315.212 231.609,314.165 230.625,314.079 230.625 C 313.993 230.625,314.900 231.609,316.094 232.813 M207.659 274.372 C 207.167 274.886,206.824 275.356,206.898 275.417 C 206.971 275.478,207.432 275.057,207.921 274.483 C 209.027 273.185,208.863 273.115,207.659 274.372 M222.949 286.016 L 222.031 287.031 223.047 286.113 C 223.605 285.609,224.063 285.152,224.063 285.098 C 224.063 284.856,223.805 285.069,222.949 286.016 M177.344 286.563 C 178.015 287.250,178.635 287.813,178.721 287.813 C 178.807 287.813,178.328 287.250,177.656 286.563 C 176.985 285.875,176.365 285.313,176.279 285.313 C 176.193 285.313,176.672 285.875,177.344 286.563 M181.875 291.094 C 182.458 291.695,183.005 292.188,183.091 292.188 C 183.177 292.188,182.771 291.695,182.188 291.094 C 181.604 290.492,181.057 290.000,180.971 290.000 C 180.885 290.000,181.292 290.492,181.875 291.094 M285.619 308.047 L 282.656 311.094 285.703 308.131 C 287.379 306.502,288.750 305.131,288.750 305.084 C 288.750 304.858,288.370 305.217,285.619 308.047 M113.750 307.656 C 114.857 308.773,115.834 309.688,115.919 309.688 C 116.005 309.688,115.170 308.773,114.063 307.656 C 112.955 306.539,111.979 305.625,111.893 305.625 C 111.807 305.625,112.643 306.539,113.750 307.656 M96.328 312.415 C 96.973 312.483,98.027 312.483,98.672 312.415 C 99.316 312.348,98.789 312.293,97.500 312.293 C 96.211 312.293,95.684 312.348,96.328 312.415 M302.329 318.203 L 301.094 319.531 302.422 318.296 C 303.657 317.147,303.894 316.875,303.657 316.875 C 303.606 316.875,303.008 317.473,302.329 318.203 M103.203 321.465 C 103.504 321.544,103.996 321.544,104.297 321.465 C 104.598 321.387,104.352 321.323,103.750 321.323 C 103.148 321.323,102.902 321.387,103.203 321.465 M91.654 321.795 C 92.821 321.855,94.649 321.854,95.716 321.794 C 96.783 321.733,95.828 321.683,93.594 321.684 C 91.359 321.684,90.486 321.734,91.654 321.795 M310.137 323.516 L 309.219 324.531 310.234 323.613 C 310.793 323.109,311.250 322.652,311.250 322.598 C 311.250 322.356,310.992 322.569,310.137 323.516 M296.233 324.297 L 295.156 325.469 296.328 324.392 C 297.419 323.389,297.644 323.125,297.405 323.125 C 297.353 323.125,296.825 323.652,296.233 324.297 M82.266 340.528 C 82.566 340.607,83.059 340.607,83.359 340.528 C 83.660 340.449,83.414 340.385,82.813 340.385 C 82.211 340.385,81.965 340.449,82.266 340.528 M104.141 340.528 C 104.441 340.607,104.934 340.607,105.234 340.528 C 105.535 340.449,105.289 340.385,104.688 340.385 C 104.086 340.385,103.840 340.449,104.141 340.528 M294.766 340.528 C 295.066 340.607,295.559 340.607,295.859 340.528 C 296.160 340.449,295.914 340.385,295.313 340.385 C 294.711 340.385,294.465 340.449,294.766 340.528 M316.641 340.528 C 316.941 340.607,317.434 340.607,317.734 340.528 C 318.035 340.449,317.789 340.385,317.188 340.385 C 316.586 340.385,316.340 340.449,316.641 340.528 M91.342 340.858 C 92.682 340.916,94.792 340.916,96.030 340.857 C 97.268 340.798,96.172 340.750,93.594 340.750 C 91.016 340.750,90.003 340.799,91.342 340.858 M304.155 340.858 C 305.495 340.916,307.604 340.916,308.842 340.857 C 310.081 340.798,308.984 340.750,306.406 340.750 C 303.828 340.750,302.815 340.799,304.155 340.858 M194.290 343.351 C 194.845 343.420,195.829 343.421,196.477 343.353 C 197.126 343.285,196.672 343.229,195.469 343.228 C 194.266 343.226,193.735 343.282,194.290 343.351 M203.352 343.351 C 203.907 343.420,204.892 343.421,205.540 343.353 C 206.188 343.285,205.734 343.229,204.531 343.228 C 203.328 343.226,202.798 343.282,203.352 343.351 M193.359 362.414 C 193.918 362.483,194.832 362.483,195.391 362.414 C 195.949 362.344,195.492 362.288,194.375 362.288 C 193.258 362.288,192.801 362.344,193.359 362.414 M204.609 362.414 C 205.168 362.483,206.082 362.483,206.641 362.414 C 207.199 362.344,206.742 362.288,205.625 362.288 C 204.508 362.288,204.051 362.344,204.609 362.414 " stroke="none" fill="#444444" fill-rule="evenodd"></path><path id="path1" d="M196.719 17.386 C 157.513 47.256,132.736 91.615,127.010 142.188 C 126.524 146.480,125.951 169.688,126.331 169.688 C 126.416 169.688,127.311 169.321,128.320 168.873 C 130.779 167.782,139.625 164.581,142.607 163.704 L 145.000 163.000 145.003 157.516 C 145.028 114.875,165.781 69.177,198.047 40.709 L 200.000 38.986 201.953 40.705 C 210.397 48.137,220.247 59.498,227.429 70.089 L 230.640 74.824 234.148 75.651 C 240.578 77.167,247.002 79.114,252.737 81.286 C 254.501 81.954,256.024 82.500,256.122 82.500 C 256.370 82.500,252.285 74.771,249.328 69.645 C 237.989 49.993,220.897 30.631,203.039 17.208 C 199.526 14.568,200.453 14.542,196.719 17.386 M192.425 81.593 C 187.384 81.833,181.807 82.420,177.452 83.169 L 175.373 83.527 173.808 86.373 C 170.596 92.214,166.054 101.807,165.186 104.583 C 164.977 105.253,164.988 105.255,166.472 104.800 C 183.886 99.463,206.051 98.721,225.625 102.820 C 270.999 112.321,310.163 151.046,318.758 194.908 C 319.129 196.801,319.196 196.895,321.522 198.804 C 325.789 202.305,333.010 208.996,336.734 212.900 L 340.377 216.719 340.170 212.675 C 337.489 160.228,302.412 111.623,252.813 91.624 C 236.361 84.991,213.766 80.676,198.750 81.299 C 198.148 81.324,195.302 81.456,192.425 81.593 M123.906 103.692 C 54.210 148.561,38.464 243.393,89.813 309.016 L 92.344 312.250 98.750 312.073 C 104.351 311.918,110.876 311.393,115.267 310.745 L 116.628 310.544 113.212 307.069 C 65.838 258.880,66.668 182.385,115.082 134.715 L 118.704 131.149 119.209 128.309 C 120.570 120.669,122.602 112.006,124.409 106.142 C 125.511 102.568,125.527 102.649,123.906 103.692 M250.630 122.262 C 250.632 122.479,250.853 123.570,251.120 124.688 C 256.017 145.152,256.249 172.194,251.710 193.330 C 245.211 223.588,232.067 248.649,210.718 271.484 L 207.139 275.312 208.149 276.172 C 212.472 279.850,221.496 286.563,222.119 286.563 C 222.703 286.562,230.799 277.474,235.202 271.875 C 257.899 243.008,270.875 209.221,273.469 172.233 C 274.124 162.882,273.456 142.324,272.317 136.806 C 271.866 134.620,250.607 120.363,250.630 122.262 M190.313 164.714 C 156.031 166.454,122.630 178.253,94.375 198.604 C 89.163 202.359,89.546 201.804,88.947 206.455 C 87.963 214.087,87.488 224.551,88.008 227.149 L 88.203 228.127 90.279 226.173 C 128.922 189.795,186.160 174.938,238.192 187.779 C 240.733 188.406,242.813 188.862,242.813 188.791 C 242.813 188.721,243.087 187.030,243.423 185.035 C 244.169 180.606,244.999 173.487,245.000 171.521 C 245.000 169.840,245.605 170.099,237.791 168.433 C 222.324 165.134,206.485 163.893,190.313 164.714 M281.727 186.170 C 281.483 188.485,279.635 198.785,278.951 201.637 C 278.451 203.723,278.137 203.340,282.344 205.782 C 317.095 225.964,344.311 261.280,355.314 300.469 C 356.608 305.078,358.533 313.138,358.374 313.287 C 358.145 313.503,348.539 316.313,345.156 317.154 C 336.523 319.299,326.319 320.881,316.766 321.555 L 312.126 321.882 306.766 327.270 C 302.252 331.808,299.305 334.474,293.168 339.573 L 292.366 340.239 298.918 340.476 C 324.858 341.414,350.326 337.035,373.498 327.652 C 379.743 325.124,379.241 325.679,378.775 321.809 C 371.912 264.787,336.417 213.281,284.958 185.674 L 281.948 184.059 281.727 186.170 M146.719 202.484 C 143.170 203.809,138.800 205.650,135.204 207.335 L 132.752 208.484 132.966 209.633 C 133.083 210.264,134.065 213.456,135.148 216.724 C 151.075 264.820,186.093 303.730,232.335 324.713 L 237.951 327.261 239.523 326.706 C 242.322 325.718,248.830 322.815,251.875 321.197 C 255.438 319.304,261.251 315.849,261.247 315.627 C 261.246 315.540,259.312 314.859,256.950 314.115 C 206.082 298.076,162.730 252.799,150.599 203.042 C 150.127 201.108,150.328 201.137,146.719 202.484 M48.825 246.486 C 34.027 269.301,24.339 295.736,21.222 321.809 C 20.760 325.679,20.258 325.124,26.502 327.652 C 79.315 349.037,141.703 343.496,189.185 313.206 L 191.626 311.648 189.798 310.240 C 187.280 308.300,181.821 303.718,178.956 301.140 L 176.576 298.998 173.210 300.862 C 162.385 306.857,153.752 310.660,143.281 314.045 C 111.765 324.237,78.385 324.488,46.324 314.775 L 41.554 313.329 41.755 312.212 C 43.667 301.554,48.944 286.105,54.914 273.690 L 57.272 268.787 55.991 264.315 C 53.859 256.870,52.184 249.411,51.670 245.069 C 51.389 242.695,51.234 242.772,48.825 246.486 M318.280 250.695 C 317.895 252.565,316.241 258.241,315.251 261.094 C 293.772 322.960,228.177 356.915,165.565 338.577 L 161.912 337.507 160.565 338.083 C 157.620 339.345,146.108 342.961,140.546 344.371 C 137.307 345.192,134.592 345.929,134.513 346.008 C 134.012 346.509,149.742 353.255,156.563 355.464 C 184.463 364.501,216.545 364.426,243.906 355.260 C 280.412 343.031,309.526 317.616,326.252 283.375 C 330.619 274.436,332.238 270.087,331.639 268.906 C 330.006 265.693,323.932 256.631,320.268 251.945 L 318.491 249.670 318.280 250.695 " stroke="none" fill="#fbfbfb" fill-rule="evenodd"></path><path id="path2" d="M273.823 166.563 C 273.823 167.164,273.887 167.410,273.965 167.109 C 274.044 166.809,274.044 166.316,273.965 166.016 C 273.887 165.715,273.823 165.961,273.823 166.563 M334.844 211.250 C 335.515 211.938,336.135 212.500,336.221 212.500 C 336.307 212.500,335.828 211.938,335.156 211.250 C 334.485 210.563,333.865 210.000,333.779 210.000 C 333.693 210.000,334.172 210.563,334.844 211.250 M93.207 312.412 C 93.682 312.484,94.386 312.482,94.770 312.407 C 95.154 312.333,94.766 312.275,93.906 312.277 C 93.047 312.279,92.732 312.340,93.207 312.412 " stroke="none" fill="#848484" fill-rule="evenodd"></path><path id="path3" d="M177.177 34.609 L 175.469 36.406 177.266 34.698 C 178.254 33.759,179.063 32.950,179.063 32.901 C 179.063 32.669,178.764 32.940,177.177 34.609 M222.500 34.531 C 223.434 35.477,224.268 36.250,224.354 36.250 C 224.440 36.250,223.746 35.477,222.813 34.531 C 221.879 33.586,221.045 32.813,220.959 32.813 C 220.873 32.813,221.566 33.586,222.500 34.531 M195.395 81.474 C 195.870 81.546,196.573 81.544,196.957 81.470 C 197.342 81.396,196.953 81.337,196.094 81.339 C 195.234 81.342,194.920 81.402,195.395 81.474 M203.207 81.474 C 203.682 81.546,204.386 81.544,204.770 81.470 C 205.154 81.396,204.766 81.337,203.906 81.339 C 203.047 81.342,202.732 81.402,203.207 81.474 M197.422 100.221 C 197.809 100.295,198.441 100.295,198.828 100.221 C 199.215 100.146,198.898 100.085,198.125 100.085 C 197.352 100.085,197.035 100.146,197.422 100.221 M201.172 100.221 C 201.559 100.295,202.191 100.295,202.578 100.221 C 202.965 100.146,202.648 100.085,201.875 100.085 C 201.102 100.085,200.785 100.146,201.172 100.221 M273.874 160.625 C 273.874 163.117,273.923 164.137,273.982 162.891 C 274.041 161.645,274.041 159.605,273.982 158.359 C 273.923 157.113,273.874 158.133,273.874 160.625 M126.058 160.625 C 126.058 162.773,126.108 163.652,126.169 162.578 C 126.230 161.504,126.230 159.746,126.169 158.672 C 126.108 157.598,126.058 158.477,126.058 160.625 M192.578 164.599 C 193.051 164.670,193.824 164.670,194.297 164.599 C 194.770 164.527,194.383 164.469,193.438 164.469 C 192.492 164.469,192.105 164.527,192.578 164.599 M205.703 164.599 C 206.176 164.670,206.949 164.670,207.422 164.599 C 207.895 164.527,207.508 164.469,206.563 164.469 C 205.617 164.469,205.230 164.527,205.703 164.599 M254.766 168.594 C 254.770 169.281,254.834 169.526,254.909 169.137 C 254.983 168.748,254.980 168.186,254.902 167.887 C 254.824 167.588,254.763 167.906,254.766 168.594 M195.551 183.346 C 195.939 183.421,196.502 183.418,196.801 183.340 C 197.099 183.261,196.781 183.200,196.094 183.204 C 195.406 183.207,195.162 183.271,195.551 183.346 M203.363 183.346 C 203.752 183.421,204.314 183.418,204.613 183.340 C 204.912 183.261,204.594 183.200,203.906 183.204 C 203.219 183.207,202.974 183.271,203.363 183.346 M331.406 207.813 C 332.078 208.500,332.697 209.063,332.783 209.063 C 332.869 209.063,332.390 208.500,331.719 207.813 C 331.047 207.125,330.428 206.563,330.342 206.563 C 330.256 206.563,330.735 207.125,331.406 207.813 M326.862 216.641 C 328.157 218.020,328.438 218.268,328.438 218.034 C 328.438 217.984,327.770 217.316,326.953 216.549 L 325.469 215.156 326.862 216.641 M78.243 221.250 C 78.243 223.227,78.294 224.035,78.356 223.047 C 78.418 222.059,78.418 220.441,78.356 219.453 C 78.294 218.465,78.243 219.273,78.243 221.250 M59.460 226.563 C 59.460 227.336,59.521 227.652,59.596 227.266 C 59.670 226.879,59.670 226.246,59.596 225.859 C 59.521 225.473,59.460 225.789,59.460 226.563 M86.488 321.784 C 86.877 321.858,87.439 321.855,87.738 321.777 C 88.037 321.699,87.719 321.638,87.031 321.641 C 86.344 321.645,86.099 321.709,86.488 321.784 M99.766 321.778 C 100.066 321.857,100.559 321.857,100.859 321.778 C 101.160 321.699,100.914 321.635,100.313 321.635 C 99.711 321.635,99.465 321.699,99.766 321.778 M312.578 321.778 C 312.879 321.857,313.371 321.857,313.672 321.778 C 313.973 321.699,313.727 321.635,313.125 321.635 C 312.523 321.635,312.277 321.699,312.578 321.778 M305.931 328.047 L 303.281 330.781 306.016 328.132 C 308.555 325.671,308.892 325.313,308.665 325.313 C 308.618 325.313,307.388 326.543,305.931 328.047 M199.141 362.411 C 199.613 362.483,200.387 362.483,200.859 362.411 C 201.332 362.340,200.945 362.281,200.000 362.281 C 199.055 362.281,198.668 362.340,199.141 362.411 " stroke="none" fill="#a4a4a4" fill-rule="evenodd"></path><path id="path4" d="" stroke="none" fill="#8c8c8c" fill-rule="evenodd"></path></g></svg>